<svg width="1200" height="630" viewBox="0 0 1200 630" fill="none" xmlns="http://www.w3.org/2000/svg">
  <defs>
    <clipPath id="clip0_536_627">
      <rect width="84.2" height="78.4" fill="white" transform="translate(842.3 56.2)"/>
    </clipPath>
  </defs>

  <!-- Background -->
  <rect width="450" height="630" transform="translate(0 0.354)" fill="white"/>
  <rect x="450" width="100%" height="630" fill="#888888"/>

  <!-- Logo -->
  <g transform="translate(20, 550) scale(0.0667)">
    <path d="M0 0L600 0L600 599.997L0 599.997L0 0Z" fill="#0a0a0a"/>
    <path fill-rule="evenodd" clip-rule="evenodd" d="M492.005 372L300.005 114L108.005 372H217.239L300.005 260.783L382.771 372H492.005Z" fill="#ffffff"/>
    <path fill-rule="evenodd" clip-rule="evenodd" d="M216.005 372L300.005 486L384.005 372L336.215 372L300.005 421.142L263.795 372L216.005 372Z" fill="#ffffff"/>
  </g>

  <text fill="#0A0A0A" font-family="Source Code Pro">
    <!-- title -->
    <tspan font-size="43">
      <tspan x="20" y="80">
        {{TITLE}} /
      </tspan>
      <tspan x="20" y="140" font-weight="bold">
        {{SUBTITLE}}
      </tspan>
    </tspan>

    <!-- logo name -->
    <tspan font-size="32" font-weight="bold" x="70" y="580">
      ethui
    </tspan>

    <tspan font-size="20">
      <tspan x="250" y="565">
        [{{DATE}}]
      </tspan>
      <tspan x="250" y="590">
        [{{AUTHOR}}]
      </tspan>
    </tspan>
  </text>
</svg>
